<svg xmlns="http://www.w3.org/2000/svg" viewBox="0 0 1920 342"><style>line {stroke-width: 4} .std {stroke: crimson} .ttt {stroke: red; stroke-dasharray: 18 15}</style><defs><circle stroke="none" stroke-width="2" id="wtg" r="12"/><rect stroke="none" stroke-width="2" id="oss" width="21" height="21" fill="lawngreen"/></defs><g id="sandbank"><path stroke="silver" stroke-dasharray="15 7" stroke-width="2" id="border" d="M122 311 30 216 30 124 32 30 123 32 215 32 310 32 404 31 1238 32 1331 35 1423 34 1516 32 1611 32 1702 30 1798 30 1886 30 1890 218 1795 312 1703 312 1610 312 1516 312 1425 312 1327 312 1239 312 1143 312 1051 312 959 312 867 312 772 312 680 312 584 312 495 312 401 311 306 311 217 311z" fill-rule="evenodd" fill="#111"/><g id="edges" class="std"><line x1="681" y1="218" x2="774" y2="218"/><line x1="1007" y1="170" x2="958" y2="220"/><line x1="1007" y1="170" x2="1051" y2="125"/><line x1="1007" y1="170" x2="957" y2="127"/><line x1="1007" y1="170" x2="1052" y2="223"/><line x1="1007" y1="170" x2="959" y2="312"/><line x1="867" y1="125" x2="957" y2="127"/><line x1="1702" y1="127" x2="1794" y2="126"/><line x1="1794" y1="126" x2="1888" y2="125"/><line x1="1886" y1="30" x2="1798" y2="30"/><line x1="1702" y1="30" x2="1798" y2="30"/><line x1="1052" y1="223" x2="1145" y2="219"/><line x1="1145" y1="219" x2="1239" y2="217"/><line x1="1239" y1="217" x2="1333" y2="216"/><line x1="1610" y1="312" x2="1703" y2="312"/><line x1="1516" y1="312" x2="1610" y2="312"/><line x1="1795" y1="312" x2="1703" y2="312"/><line x1="1143" y1="312" x2="1239" y2="312"/><line x1="1051" y1="312" x2="1143" y2="312"/><line x1="1239" y1="312" x2="1327" y2="312"/><line x1="1611" y1="218" x2="1702" y2="220"/><line x1="1702" y1="220" x2="1795" y2="220"/><line x1="309" y1="126" x2="401" y2="128"/><line x1="403" y1="220" x2="493" y2="220"/><line x1="493" y1="220" x2="495" y2="312"/><line x1="1238" y1="32" x2="1331" y2="35"/><line x1="1423" y1="34" x2="1516" y2="32"/><line x1="1423" y1="123" x2="1423" y2="34"/><line x1="1890" y1="218" x2="1795" y2="220"/><line x1="1329" y1="127" x2="1423" y2="123"/><line x1="404" y1="31" x2="310" y2="32"/><line x1="30" y1="124" x2="122" y2="126"/><line x1="122" y1="126" x2="123" y2="216"/><line x1="215" y1="32" x2="218" y2="124"/><line x1="1145" y1="127" x2="1237" y2="127"/><line x1="309" y1="126" x2="308" y2="218"/><line x1="215" y1="218" x2="308" y2="218"/><line x1="1611" y1="32" x2="1702" y2="30"/><line x1="1609" y1="128" x2="1702" y2="127"/><line x1="1238" y1="32" x2="1237" y2="127"/><line x1="122" y1="311" x2="217" y2="311"/><line x1="217" y1="311" x2="306" y2="311"/><line x1="32" y1="30" x2="123" y2="32"/><line x1="215" y1="32" x2="123" y2="32"/><line x1="495" y1="123" x2="591" y2="123"/><line x1="404" y1="31" x2="495" y2="123"/><line x1="587" y1="218" x2="681" y2="218"/><line x1="495" y1="312" x2="584" y2="312"/><line x1="1518" y1="126" x2="1518" y2="219"/><line x1="1425" y1="312" x2="1425" y2="219"/><line x1="681" y1="126" x2="681" y2="218"/><line x1="1425" y1="219" x2="1518" y2="219"/><line x1="306" y1="311" x2="401" y2="311"/><line x1="30" y1="216" x2="123" y2="216"/><line x1="772" y1="312" x2="867" y2="312"/><line x1="959" y1="312" x2="867" y2="312"/><line x1="680" y1="312" x2="772" y2="312"/></g><g id="edges" class="ttt"><line x1="1007" y1="170" x2="774" y2="218"/><line x1="1007" y1="170" x2="1611" y2="218"/><line x1="1007" y1="170" x2="123" y2="216"/><line x1="1007" y1="170" x2="1329" y2="127"/><line x1="1007" y1="170" x2="584" y2="312"/><line x1="1007" y1="170" x2="218" y2="124"/><line x1="1007" y1="170" x2="401" y2="128"/><line x1="1007" y1="170" x2="1425" y2="219"/><line x1="1007" y1="170" x2="1145" y2="127"/><line x1="1007" y1="170" x2="1611" y2="32"/><line x1="1007" y1="170" x2="1051" y2="312"/><line x1="1007" y1="170" x2="1609" y2="128"/><line x1="1007" y1="170" x2="591" y2="123"/><line x1="1007" y1="170" x2="1516" y2="312"/><line x1="1007" y1="170" x2="401" y2="311"/></g><g id="WTGgrp"><g fill="#1f77b4"><use href="#wtg" x="774" y="218"/><use href="#wtg" x="587" y="218"/><use href="#wtg" x="681" y="218"/><use href="#wtg" x="681" y="126"/></g><g fill="#8c564b"><use href="#wtg" x="867" y="125"/><use href="#wtg" x="957" y="127"/></g><g fill="#f7b6d2"><use href="#wtg" x="1794" y="126"/><use href="#wtg" x="1888" y="125"/><use href="#wtg" x="1702" y="127"/><use href="#wtg" x="1609" y="128"/></g><g fill="#c5b0d5"><use href="#wtg" x="1798" y="30"/><use href="#wtg" x="1611" y="32"/><use href="#wtg" x="1702" y="30"/><use href="#wtg" x="1886" y="30"/></g><g fill="#ffbb78"><use href="#wtg" x="1145" y="219"/><use href="#wtg" x="1239" y="217"/><use href="#wtg" x="1333" y="216"/><use href="#wtg" x="1052" y="223"/></g><g fill="#7f7f7f"><use href="#wtg" x="1610" y="312"/><use href="#wtg" x="1703" y="312"/><use href="#wtg" x="1795" y="312"/><use href="#wtg" x="1516" y="312"/></g><g fill="#c49c94"><use href="#wtg" x="1143" y="312"/><use href="#wtg" x="1239" y="312"/><use href="#wtg" x="1327" y="312"/><use href="#wtg" x="1051" y="312"/></g><g fill="#aec7e8"><use href="#wtg" x="1611" y="218"/><use href="#wtg" x="1702" y="220"/><use href="#wtg" x="1890" y="218"/><use href="#wtg" x="1795" y="220"/></g><g fill="#ff7f0e"><use href="#wtg" x="401" y="128"/><use href="#wtg" x="309" y="126"/><use href="#wtg" x="308" y="218"/><use href="#wtg" x="215" y="218"/></g><g fill="#e377c2"><use href="#wtg" x="493" y="220"/><use href="#wtg" x="584" y="312"/><use href="#wtg" x="403" y="220"/><use href="#wtg" x="495" y="312"/></g><g fill="#2ca02c"><use href="#wtg" x="1051" y="125"/></g><g fill="#ff9896"><use href="#wtg" x="1331" y="35"/><use href="#wtg" x="1145" y="127"/><use href="#wtg" x="1238" y="32"/><use href="#wtg" x="1237" y="127"/></g><g fill="#98df8a"><use href="#wtg" x="1423" y="34"/><use href="#wtg" x="1329" y="127"/><use href="#wtg" x="1423" y="123"/><use href="#wtg" x="1516" y="32"/></g><g fill="#17becf"><use href="#wtg" x="310" y="32"/><use href="#wtg" x="495" y="123"/><use href="#wtg" x="591" y="123"/><use href="#wtg" x="404" y="31"/></g><g fill="#bcbd22"><use href="#wtg" x="122" y="126"/><use href="#wtg" x="123" y="216"/><use href="#wtg" x="30" y="216"/><use href="#wtg" x="30" y="124"/></g><g fill="#d62728"><use href="#wtg" x="218" y="124"/><use href="#wtg" x="32" y="30"/><use href="#wtg" x="123" y="32"/><use href="#wtg" x="215" y="32"/></g><g fill="#9467bd"><use href="#wtg" x="958" y="220"/></g><g fill="#c7c7c7"><use href="#wtg" x="122" y="311"/><use href="#wtg" x="217" y="311"/><use href="#wtg" x="401" y="311"/><use href="#wtg" x="306" y="311"/></g><g fill="#dbdb8d"><use href="#wtg" x="1518" y="126"/><use href="#wtg" x="1425" y="312"/><use href="#wtg" x="1518" y="219"/><use href="#wtg" x="1425" y="219"/></g><g fill="#9edae5"><use href="#wtg" x="867" y="312"/><use href="#wtg" x="959" y="312"/><use href="#wtg" x="680" y="312"/><use href="#wtg" x="772" y="312"/></g></g><g id="OSSgrp"><use href="#oss" x="996.5" y="159.5"/></g></g><text text-anchor="end" font-family="sans-serif" font-size="40" fill="white" x="1920" y="342"><tspan x="1920" dx="-0.2em" dy="-0.2em">&#931;&#955; = 136684.0 m</tspan><tspan x="1920" dx="-0.2em" dy="-1.2em">(+2) &#945;: 20</tspan><tspan x="1920" dx="-0.2em" dy="-1.2em">&#954; = 4, T = 72</tspan></text></svg>