<?xml version="1.0" encoding="utf-8" standalone="no"?>
<!DOCTYPE svg PUBLIC "-//W3C//DTD SVG 1.1//EN"
  "http://www.w3.org/Graphics/SVG/1.1/DTD/svg11.dtd">
<svg xmlns:xlink="http://www.w3.org/1999/xlink" width="460.8pt" height="345.6pt" viewBox="0 0 460.8 345.6" xmlns="http://www.w3.org/2000/svg" version="1.1">
 <metadata>
  <rdf:RDF xmlns:dc="http://purl.org/dc/elements/1.1/" xmlns:cc="http://creativecommons.org/ns#" xmlns:rdf="http://www.w3.org/1999/02/22-rdf-syntax-ns#">
   <cc:Work>
    <dc:type rdf:resource="http://purl.org/dc/dcmitype/StillImage"/>
    <dc:date>2025-03-06T15:20:01.391836</dc:date>
    <dc:format>image/svg+xml</dc:format>
    <dc:creator>
     <cc:Agent>
      <dc:title>Matplotlib v3.10.0, https://matplotlib.org/</dc:title>
     </cc:Agent>
    </dc:creator>
   </cc:Work>
  </rdf:RDF>
 </metadata>
 <defs>
  <style type="text/css">*{stroke-linejoin: round; stroke-linecap: butt}</style>
 </defs>
 <g id="figure_1">
  <g id="axes_1">
   <g id="patch_1">
    <path d="M 46.053406 203.681766 
L 25.719748 182.645736 
L 25.805273 162.481557 
L 26.139047 141.752631 
L 46.283289 142.185523 
L 66.524726 142.315797 
L 87.383514 142.234982 
L 107.975332 142.094698 
L 291.586138 142.311481 
L 311.974234 142.792011 
L 332.397879 142.593464 
L 352.849411 142.284834 
L 373.608712 142.153967 
L 393.780261 141.795412 
L 414.771694 141.752631 
L 434.236948 141.864972 
L 435.080252 183.200007 
L 414.208214 203.847369 
L 393.829495 203.847061 
L 373.552507 203.845554 
L 352.797658 203.843142 
L 332.677592 203.839663 
L 311.15432 203.834871 
L 291.789505 203.829624 
L 270.656349 203.822869 
L 250.487799 203.815316 
L 230.149191 203.806643 
L 210.020507 203.797106 
L 189.084383 203.78617 
L 168.758905 203.774348 
L 147.731423 203.761152 
L 128.055289 203.747789 
L 107.444433 203.732763 
L 86.46166 203.716377 
L 66.872274 203.700117 
z
" clip-path="url(#p748a9e7a61)" style="fill: #111111; stroke-dasharray: 2.59,1.12; stroke-dashoffset: 0; stroke: #c0c0c0; stroke-width: 0.7; stroke-linejoin: miter"/>
   </g>
   <g id="LineCollection_1">
    <path d="M 189.427707 183.143452 
L 240.756081 172.628644 
" clip-path="url(#p748a9e7a61)" style="fill: none; stroke-dasharray: 6.4,1.6,1,1.6; stroke-dashoffset: 0; stroke: #ff0000; stroke-linecap: round"/>
    <path d="M 240.756081 172.628644 
L 373.614621 183.14688 
" clip-path="url(#p748a9e7a61)" style="fill: none; stroke-dasharray: 6.4,1.6,1,1.6; stroke-dashoffset: 0; stroke: #ff0000; stroke-linecap: round"/>
    <path d="M 240.756081 172.628644 
L 46.085714 182.770078 
" clip-path="url(#p748a9e7a61)" style="fill: none; stroke-dasharray: 6.4,1.6,1,1.6; stroke-dashoffset: 0; stroke: #ff0000; stroke-linecap: round"/>
    <path d="M 240.756081 172.628644 
L 311.715704 163.161629 
" clip-path="url(#p748a9e7a61)" style="fill: none; stroke-dasharray: 6.4,1.6,1,1.6; stroke-dashoffset: 0; stroke: #ff0000; stroke-linecap: round"/>
    <path d="M 240.756081 172.628644 
L 147.731423 203.761152 
" clip-path="url(#p748a9e7a61)" style="fill: none; stroke-dasharray: 6.4,1.6,1,1.6; stroke-dashoffset: 0; stroke: #ff0000; stroke-linecap: round"/>
    <path d="M 240.756081 172.628644 
L 67.007107 162.565285 
" clip-path="url(#p748a9e7a61)" style="fill: none; stroke-dasharray: 6.4,1.6,1,1.6; stroke-dashoffset: 0; stroke: #ff0000; stroke-linecap: round"/>
    <path d="M 240.756081 172.628644 
L 107.411837 163.267133 
" clip-path="url(#p748a9e7a61)" style="fill: none; stroke-dasharray: 6.4,1.6,1,1.6; stroke-dashoffset: 0; stroke: #ff0000; stroke-linecap: round"/>
    <path d="M 240.756081 172.628644 
L 332.663999 183.396741 
" clip-path="url(#p748a9e7a61)" style="fill: none; stroke-dasharray: 6.4,1.6,1,1.6; stroke-dashoffset: 0; stroke: #ff0000; stroke-linecap: round"/>
    <path d="M 240.756081 172.628644 
L 271.105101 163.024171 
" clip-path="url(#p748a9e7a61)" style="fill: none; stroke-dasharray: 6.4,1.6,1,1.6; stroke-dashoffset: 0; stroke: #ff0000; stroke-linecap: round"/>
    <path d="M 240.756081 172.628644 
L 373.608712 142.153967 
" clip-path="url(#p748a9e7a61)" style="fill: none; stroke-dasharray: 6.4,1.6,1,1.6; stroke-dashoffset: 0; stroke: #ff0000; stroke-linecap: round"/>
    <path d="M 240.756081 172.628644 
L 250.487799 203.815316 
" clip-path="url(#p748a9e7a61)" style="fill: none; stroke-dasharray: 6.4,1.6,1,1.6; stroke-dashoffset: 0; stroke: #ff0000; stroke-linecap: round"/>
    <path d="M 240.756081 172.628644 
L 373.189834 163.301396 
" clip-path="url(#p748a9e7a61)" style="fill: none; stroke-dasharray: 6.4,1.6,1,1.6; stroke-dashoffset: 0; stroke: #ff0000; stroke-linecap: round"/>
    <path d="M 240.756081 172.628644 
L 149.123912 162.191463 
" clip-path="url(#p748a9e7a61)" style="fill: none; stroke-dasharray: 6.4,1.6,1,1.6; stroke-dashoffset: 0; stroke: #ff0000; stroke-linecap: round"/>
    <path d="M 240.756081 172.628644 
L 352.797658 203.843142 
" clip-path="url(#p748a9e7a61)" style="fill: none; stroke-dasharray: 6.4,1.6,1,1.6; stroke-dashoffset: 0; stroke: #ff0000; stroke-linecap: round"/>
    <path d="M 240.756081 172.628644 
L 107.444433 203.732763 
" clip-path="url(#p748a9e7a61)" style="fill: none; stroke-dasharray: 6.4,1.6,1,1.6; stroke-dashoffset: 0; stroke: #ff0000; stroke-linecap: round"/>
   </g>
   <g id="LineCollection_2">
    <path d="M 189.427707 183.143452 
L 168.947875 183.193245 
" clip-path="url(#p748a9e7a61)" style="fill: none; stroke: #dc143c; stroke-linecap: round"/>
    <path d="M 240.756081 172.628644 
L 229.934443 183.624822 
" clip-path="url(#p748a9e7a61)" style="fill: none; stroke: #dc143c; stroke-linecap: round"/>
    <path d="M 240.756081 172.628644 
L 250.460745 162.70885 
" clip-path="url(#p748a9e7a61)" style="fill: none; stroke: #dc143c; stroke-linecap: round"/>
    <path d="M 240.756081 172.628644 
L 229.680862 163.046706 
" clip-path="url(#p748a9e7a61)" style="fill: none; stroke: #dc143c; stroke-linecap: round"/>
    <path d="M 240.756081 172.628644 
L 250.722827 184.319596 
" clip-path="url(#p748a9e7a61)" style="fill: none; stroke: #dc143c; stroke-linecap: round"/>
    <path d="M 240.756081 172.628644 
L 230.149191 203.806643 
" clip-path="url(#p748a9e7a61)" style="fill: none; stroke: #dc143c; stroke-linecap: round"/>
    <path d="M 209.853718 162.674516 
L 229.680862 163.046706 
" clip-path="url(#p748a9e7a61)" style="fill: none; stroke: #dc143c; stroke-linecap: round"/>
    <path d="M 413.949737 162.937151 
L 393.713541 163.236727 
" clip-path="url(#p748a9e7a61)" style="fill: none; stroke: #dc143c; stroke-linecap: round"/>
    <path d="M 413.949737 162.937151 
L 434.583763 162.663418 
" clip-path="url(#p748a9e7a61)" style="fill: none; stroke: #dc143c; stroke-linecap: round"/>
    <path d="M 414.771694 141.752631 
L 434.236948 141.864972 
" clip-path="url(#p748a9e7a61)" style="fill: none; stroke: #dc143c; stroke-linecap: round"/>
    <path d="M 414.771694 141.752631 
L 393.780261 141.795412 
" clip-path="url(#p748a9e7a61)" style="fill: none; stroke: #dc143c; stroke-linecap: round"/>
    <path d="M 271.08122 183.323275 
L 250.722827 184.319596 
" clip-path="url(#p748a9e7a61)" style="fill: none; stroke: #dc143c; stroke-linecap: round"/>
    <path d="M 271.08122 183.323275 
L 291.785928 182.855275 
" clip-path="url(#p748a9e7a61)" style="fill: none; stroke: #dc143c; stroke-linecap: round"/>
    <path d="M 291.785928 182.855275 
L 312.533639 182.736888 
" clip-path="url(#p748a9e7a61)" style="fill: none; stroke: #dc143c; stroke-linecap: round"/>
    <path d="M 373.552507 203.845554 
L 393.829495 203.847061 
" clip-path="url(#p748a9e7a61)" style="fill: none; stroke: #dc143c; stroke-linecap: round"/>
    <path d="M 373.552507 203.845554 
L 352.797658 203.843142 
" clip-path="url(#p748a9e7a61)" style="fill: none; stroke: #dc143c; stroke-linecap: round"/>
    <path d="M 393.829495 203.847061 
L 414.208214 203.847369 
" clip-path="url(#p748a9e7a61)" style="fill: none; stroke: #dc143c; stroke-linecap: round"/>
    <path d="M 270.656349 203.822869 
L 291.789505 203.829624 
" clip-path="url(#p748a9e7a61)" style="fill: none; stroke: #dc143c; stroke-linecap: round"/>
    <path d="M 270.656349 203.822869 
L 250.487799 203.815316 
" clip-path="url(#p748a9e7a61)" style="fill: none; stroke: #dc143c; stroke-linecap: round"/>
    <path d="M 291.789505 203.829624 
L 311.15432 203.834871 
" clip-path="url(#p748a9e7a61)" style="fill: none; stroke: #dc143c; stroke-linecap: round"/>
    <path d="M 373.614621 183.14688 
L 393.792913 183.640494 
" clip-path="url(#p748a9e7a61)" style="fill: none; stroke: #dc143c; stroke-linecap: round"/>
    <path d="M 393.792913 183.640494 
L 414.158767 183.544275 
" clip-path="url(#p748a9e7a61)" style="fill: none; stroke: #dc143c; stroke-linecap: round"/>
    <path d="M 107.411837 163.267133 
L 87.152753 162.905009 
" clip-path="url(#p748a9e7a61)" style="fill: none; stroke: #dc143c; stroke-linecap: round"/>
    <path d="M 127.690645 183.678441 
L 107.814098 183.623791 
" clip-path="url(#p748a9e7a61)" style="fill: none; stroke: #dc143c; stroke-linecap: round"/>
    <path d="M 127.690645 183.678441 
L 128.055289 203.747789 
" clip-path="url(#p748a9e7a61)" style="fill: none; stroke: #dc143c; stroke-linecap: round"/>
    <path d="M 311.974234 142.792011 
L 291.586138 142.311481 
" clip-path="url(#p748a9e7a61)" style="fill: none; stroke: #dc143c; stroke-linecap: round"/>
    <path d="M 332.397879 142.593464 
L 352.849411 142.284834 
" clip-path="url(#p748a9e7a61)" style="fill: none; stroke: #dc143c; stroke-linecap: round"/>
    <path d="M 332.397879 142.593464 
L 332.280475 162.312841 
" clip-path="url(#p748a9e7a61)" style="fill: none; stroke: #dc143c; stroke-linecap: round"/>
    <path d="M 435.080252 183.200007 
L 414.158767 183.544275 
" clip-path="url(#p748a9e7a61)" style="fill: none; stroke: #dc143c; stroke-linecap: round"/>
    <path d="M 311.715704 163.161629 
L 332.280475 162.312841 
" clip-path="url(#p748a9e7a61)" style="fill: none; stroke: #dc143c; stroke-linecap: round"/>
    <path d="M 87.383514 142.234982 
L 107.975332 142.094698 
" clip-path="url(#p748a9e7a61)" style="fill: none; stroke: #dc143c; stroke-linecap: round"/>
    <path d="M 45.942189 162.823098 
L 25.805273 162.481557 
" clip-path="url(#p748a9e7a61)" style="fill: none; stroke: #dc143c; stroke-linecap: round"/>
    <path d="M 45.942189 162.823098 
L 46.085714 182.770078 
" clip-path="url(#p748a9e7a61)" style="fill: none; stroke: #dc143c; stroke-linecap: round"/>
    <path d="M 67.007107 162.565285 
L 66.524726 142.315797 
" clip-path="url(#p748a9e7a61)" style="fill: none; stroke: #dc143c; stroke-linecap: round"/>
    <path d="M 271.105101 163.024171 
L 291.450967 163.15951 
" clip-path="url(#p748a9e7a61)" style="fill: none; stroke: #dc143c; stroke-linecap: round"/>
    <path d="M 87.152753 162.905009 
L 86.879186 183.226202 
" clip-path="url(#p748a9e7a61)" style="fill: none; stroke: #dc143c; stroke-linecap: round"/>
    <path d="M 86.879186 183.226202 
L 66.445089 183.161756 
" clip-path="url(#p748a9e7a61)" style="fill: none; stroke: #dc143c; stroke-linecap: round"/>
    <path d="M 373.608712 142.153967 
L 393.780261 141.795412 
" clip-path="url(#p748a9e7a61)" style="fill: none; stroke: #dc143c; stroke-linecap: round"/>
    <path d="M 393.713541 163.236727 
L 373.189834 163.301396 
" clip-path="url(#p748a9e7a61)" style="fill: none; stroke: #dc143c; stroke-linecap: round"/>
    <path d="M 291.586138 142.311481 
L 291.450967 163.15951 
" clip-path="url(#p748a9e7a61)" style="fill: none; stroke: #dc143c; stroke-linecap: round"/>
    <path d="M 46.053406 203.681766 
L 66.872274 203.700117 
" clip-path="url(#p748a9e7a61)" style="fill: none; stroke: #dc143c; stroke-linecap: round"/>
    <path d="M 66.872274 203.700117 
L 86.46166 203.716377 
" clip-path="url(#p748a9e7a61)" style="fill: none; stroke: #dc143c; stroke-linecap: round"/>
    <path d="M 26.139047 141.752631 
L 46.283289 142.185523 
" clip-path="url(#p748a9e7a61)" style="fill: none; stroke: #dc143c; stroke-linecap: round"/>
    <path d="M 46.283289 142.185523 
L 66.524726 142.315797 
" clip-path="url(#p748a9e7a61)" style="fill: none; stroke: #dc143c; stroke-linecap: round"/>
    <path d="M 127.978711 162.212808 
L 149.123912 162.191463 
" clip-path="url(#p748a9e7a61)" style="fill: none; stroke: #dc143c; stroke-linecap: round"/>
    <path d="M 127.978711 162.212808 
L 107.975332 142.094698 
" clip-path="url(#p748a9e7a61)" style="fill: none; stroke: #dc143c; stroke-linecap: round"/>
    <path d="M 148.363831 183.218635 
L 168.947875 183.193245 
" clip-path="url(#p748a9e7a61)" style="fill: none; stroke: #dc143c; stroke-linecap: round"/>
    <path d="M 147.731423 203.761152 
L 128.055289 203.747789 
" clip-path="url(#p748a9e7a61)" style="fill: none; stroke: #dc143c; stroke-linecap: round"/>
    <path d="M 353.246369 162.803185 
L 353.288779 183.361909 
" clip-path="url(#p748a9e7a61)" style="fill: none; stroke: #dc143c; stroke-linecap: round"/>
    <path d="M 332.677592 203.839663 
L 332.663999 183.396741 
" clip-path="url(#p748a9e7a61)" style="fill: none; stroke: #dc143c; stroke-linecap: round"/>
    <path d="M 168.947875 183.193245 
L 168.976934 162.91634 
" clip-path="url(#p748a9e7a61)" style="fill: none; stroke: #dc143c; stroke-linecap: round"/>
    <path d="M 353.288779 183.361909 
L 332.663999 183.396741 
" clip-path="url(#p748a9e7a61)" style="fill: none; stroke: #dc143c; stroke-linecap: round"/>
    <path d="M 107.444433 203.732763 
L 86.46166 203.716377 
" clip-path="url(#p748a9e7a61)" style="fill: none; stroke: #dc143c; stroke-linecap: round"/>
    <path d="M 46.085714 182.770078 
L 25.719748 182.645736 
" clip-path="url(#p748a9e7a61)" style="fill: none; stroke: #dc143c; stroke-linecap: round"/>
    <path d="M 210.020507 203.797106 
L 189.084383 203.78617 
" clip-path="url(#p748a9e7a61)" style="fill: none; stroke: #dc143c; stroke-linecap: round"/>
    <path d="M 210.020507 203.797106 
L 230.149191 203.806643 
" clip-path="url(#p748a9e7a61)" style="fill: none; stroke: #dc143c; stroke-linecap: round"/>
    <path d="M 168.758905 203.774348 
L 189.084383 203.78617 
" clip-path="url(#p748a9e7a61)" style="fill: none; stroke: #dc143c; stroke-linecap: round"/>
   </g>
   <g id="PathCollection_1">
    <path d="M 237.798041 175.586684 
L 243.714121 175.586684 
L 243.714121 169.670604 
L 237.798041 169.670604 
z
" style="fill: #7cfc00"/>
   </g>
   <g id="PathCollection_2">
    <defs>
     <path id="C0_0_52c6ef761c" d="M 0 2.95804 
C 0.784481 2.95804 1.536938 2.646362 2.09165 2.09165 
C 2.646362 1.536938 2.95804 0.784481 2.95804 -0 
C 2.95804 -0.784481 2.646362 -1.536938 2.09165 -2.09165 
C 1.536938 -2.646362 0.784481 -2.95804 0 -2.95804 
C -0.784481 -2.95804 -1.536938 -2.646362 -2.09165 -2.09165 
C -2.646362 -1.536938 -2.95804 -0.784481 -2.95804 0 
C -2.95804 0.784481 -2.646362 1.536938 -2.09165 2.09165 
C -1.536938 2.646362 -0.784481 2.95804 0 2.95804 
z
"/>
    </defs>
    <use xlink:href="#C0_0_52c6ef761c" x="435.080252" y="183.200007" style="fill: #aec7e8"/>
    <use xlink:href="#C0_0_52c6ef761c" x="434.236948" y="141.864972" style="fill: #c5b0d5"/>
    <use xlink:href="#C0_0_52c6ef761c" x="414.208214" y="203.847369" style="fill: #7f7f7f"/>
    <use xlink:href="#C0_0_52c6ef761c" x="46.053406" y="203.681766" style="fill: #c7c7c7"/>
    <use xlink:href="#C0_0_52c6ef761c" x="25.719748" y="182.645736" style="fill: #bcbd22"/>
    <use xlink:href="#C0_0_52c6ef761c" x="26.139047" y="141.752631" style="fill: #d62728"/>
    <use xlink:href="#C0_0_52c6ef761c" x="230.149191" y="203.806643" style="fill: #9edae5"/>
    <use xlink:href="#C0_0_52c6ef761c" x="291.586138" y="142.311481" style="fill: #ff9896"/>
    <use xlink:href="#C0_0_52c6ef761c" x="25.805273" y="162.481557" style="fill: #bcbd22"/>
    <use xlink:href="#C0_0_52c6ef761c" x="107.975332" y="142.094698" style="fill: #17becf"/>
    <use xlink:href="#C0_0_52c6ef761c" x="66.524726" y="142.315797" style="fill: #d62728"/>
    <use xlink:href="#C0_0_52c6ef761c" x="87.383514" y="142.234982" style="fill: #17becf"/>
    <use xlink:href="#C0_0_52c6ef761c" x="46.283289" y="142.185523" style="fill: #d62728"/>
    <use xlink:href="#C0_0_52c6ef761c" x="45.942189" y="162.823098" style="fill: #bcbd22"/>
    <use xlink:href="#C0_0_52c6ef761c" x="46.085714" y="182.770078" style="fill: #bcbd22"/>
    <use xlink:href="#C0_0_52c6ef761c" x="66.872274" y="203.700117" style="fill: #c7c7c7"/>
    <use xlink:href="#C0_0_52c6ef761c" x="66.445089" y="183.161756" style="fill: #ff7f0e"/>
    <use xlink:href="#C0_0_52c6ef761c" x="67.007107" y="162.565285" style="fill: #d62728"/>
    <use xlink:href="#C0_0_52c6ef761c" x="87.152753" y="162.905009" style="fill: #ff7f0e"/>
    <use xlink:href="#C0_0_52c6ef761c" x="86.879186" y="183.226202" style="fill: #ff7f0e"/>
    <use xlink:href="#C0_0_52c6ef761c" x="86.46166" y="203.716377" style="fill: #c7c7c7"/>
    <use xlink:href="#C0_0_52c6ef761c" x="107.444433" y="203.732763" style="fill: #c7c7c7"/>
    <use xlink:href="#C0_0_52c6ef761c" x="107.814098" y="183.623791" style="fill: #e377c2"/>
    <use xlink:href="#C0_0_52c6ef761c" x="107.411837" y="163.267133" style="fill: #ff7f0e"/>
    <use xlink:href="#C0_0_52c6ef761c" x="127.978711" y="162.212808" style="fill: #17becf"/>
    <use xlink:href="#C0_0_52c6ef761c" x="127.690645" y="183.678441" style="fill: #e377c2"/>
    <use xlink:href="#C0_0_52c6ef761c" x="128.055289" y="203.747789" style="fill: #e377c2"/>
    <use xlink:href="#C0_0_52c6ef761c" x="147.731423" y="203.761152" style="fill: #e377c2"/>
    <use xlink:href="#C0_0_52c6ef761c" x="148.363831" y="183.218635" style="fill: #1f77b4"/>
    <use xlink:href="#C0_0_52c6ef761c" x="149.123912" y="162.191463" style="fill: #17becf"/>
    <use xlink:href="#C0_0_52c6ef761c" x="168.976934" y="162.91634" style="fill: #1f77b4"/>
    <use xlink:href="#C0_0_52c6ef761c" x="168.947875" y="183.193245" style="fill: #1f77b4"/>
    <use xlink:href="#C0_0_52c6ef761c" x="168.758905" y="203.774348" style="fill: #9edae5"/>
    <use xlink:href="#C0_0_52c6ef761c" x="189.427707" y="183.143452" style="fill: #1f77b4"/>
    <use xlink:href="#C0_0_52c6ef761c" x="189.084383" y="203.78617" style="fill: #9edae5"/>
    <use xlink:href="#C0_0_52c6ef761c" x="210.020507" y="203.797106" style="fill: #9edae5"/>
    <use xlink:href="#C0_0_52c6ef761c" x="209.853718" y="162.674516" style="fill: #8c564b"/>
    <use xlink:href="#C0_0_52c6ef761c" x="229.680862" y="163.046706" style="fill: #8c564b"/>
    <use xlink:href="#C0_0_52c6ef761c" x="229.934443" y="183.624822" style="fill: #9467bd"/>
    <use xlink:href="#C0_0_52c6ef761c" x="250.487799" y="203.815316" style="fill: #c49c94"/>
    <use xlink:href="#C0_0_52c6ef761c" x="250.722827" y="184.319596" style="fill: #ffbb78"/>
    <use xlink:href="#C0_0_52c6ef761c" x="250.460745" y="162.70885" style="fill: #2ca02c"/>
    <use xlink:href="#C0_0_52c6ef761c" x="271.105101" y="163.024171" style="fill: #ff9896"/>
    <use xlink:href="#C0_0_52c6ef761c" x="271.08122" y="183.323275" style="fill: #ffbb78"/>
    <use xlink:href="#C0_0_52c6ef761c" x="270.656349" y="203.822869" style="fill: #c49c94"/>
    <use xlink:href="#C0_0_52c6ef761c" x="291.789505" y="203.829624" style="fill: #c49c94"/>
    <use xlink:href="#C0_0_52c6ef761c" x="291.785928" y="182.855275" style="fill: #ffbb78"/>
    <use xlink:href="#C0_0_52c6ef761c" x="291.450967" y="163.15951" style="fill: #ff9896"/>
    <use xlink:href="#C0_0_52c6ef761c" x="311.974234" y="142.792011" style="fill: #ff9896"/>
    <use xlink:href="#C0_0_52c6ef761c" x="311.715704" y="163.161629" style="fill: #98df8a"/>
    <use xlink:href="#C0_0_52c6ef761c" x="311.15432" y="203.834871" style="fill: #c49c94"/>
    <use xlink:href="#C0_0_52c6ef761c" x="332.677592" y="203.839663" style="fill: #dbdb8d"/>
    <use xlink:href="#C0_0_52c6ef761c" x="332.663999" y="183.396741" style="fill: #dbdb8d"/>
    <use xlink:href="#C0_0_52c6ef761c" x="332.280475" y="162.312841" style="fill: #98df8a"/>
    <use xlink:href="#C0_0_52c6ef761c" x="332.397879" y="142.593464" style="fill: #98df8a"/>
    <use xlink:href="#C0_0_52c6ef761c" x="352.849411" y="142.284834" style="fill: #98df8a"/>
    <use xlink:href="#C0_0_52c6ef761c" x="353.246369" y="162.803185" style="fill: #dbdb8d"/>
    <use xlink:href="#C0_0_52c6ef761c" x="352.797658" y="203.843142" style="fill: #7f7f7f"/>
    <use xlink:href="#C0_0_52c6ef761c" x="373.552507" y="203.845554" style="fill: #7f7f7f"/>
    <use xlink:href="#C0_0_52c6ef761c" x="373.614621" y="183.14688" style="fill: #aec7e8"/>
    <use xlink:href="#C0_0_52c6ef761c" x="373.189834" y="163.301396" style="fill: #f7b6d2"/>
    <use xlink:href="#C0_0_52c6ef761c" x="373.608712" y="142.153967" style="fill: #c5b0d5"/>
    <use xlink:href="#C0_0_52c6ef761c" x="393.780261" y="141.795412" style="fill: #c5b0d5"/>
    <use xlink:href="#C0_0_52c6ef761c" x="393.713541" y="163.236727" style="fill: #f7b6d2"/>
    <use xlink:href="#C0_0_52c6ef761c" x="393.792913" y="183.640494" style="fill: #aec7e8"/>
    <use xlink:href="#C0_0_52c6ef761c" x="393.829495" y="203.847061" style="fill: #7f7f7f"/>
    <use xlink:href="#C0_0_52c6ef761c" x="414.158767" y="183.544275" style="fill: #aec7e8"/>
    <use xlink:href="#C0_0_52c6ef761c" x="413.949737" y="162.937151" style="fill: #f7b6d2"/>
    <use xlink:href="#C0_0_52c6ef761c" x="414.771694" y="141.752631" style="fill: #c5b0d5"/>
    <use xlink:href="#C0_0_52c6ef761c" x="434.583763" y="162.663418" style="fill: #f7b6d2"/>
    <use xlink:href="#C0_0_52c6ef761c" x="312.533639" y="182.736888" style="fill: #ffbb78"/>
    <use xlink:href="#C0_0_52c6ef761c" x="353.288779" y="183.361909" style="fill: #dbdb8d"/>
   </g>
   <g id="legend_1">
    <g id="patch_2">
     <path d="M 175.835312 202.293627 
L 284.964687 202.293627 
Q 286.964687 202.293627 286.964687 200.293627 
L 286.964687 157.805127 
Q 286.964687 155.805127 284.964687 155.805127 
L 175.835312 155.805127 
Q 173.835312 155.805127 173.835312 157.805127 
L 173.835312 200.293627 
Q 173.835312 202.293627 175.835312 202.293627 
z
" style="fill: #111111; opacity: 0.6; stroke: #ffffff; stroke-linejoin: miter"/>
    </g>
    <g id="text_1">
     <!-- κ = 4, T = 72 -->
     <g style="fill: #ffffff" transform="translate(190.249687 168.923252) scale(0.12 -0.12)">
      <defs>
       <path id="DejaVuSans-3ba" d="M 597 3500 
L 1191 3500 
L 1191 2047 
L 2700 3500 
L 3400 3500 
L 2022 2181 
L 3616 0 
L 2913 0 
L 1619 1806 
L 1191 1403 
L 1191 0 
L 597 0 
L 597 3500 
z
" transform="scale(0.015625)"/>
       <path id="DejaVuSans-20" transform="scale(0.015625)"/>
       <path id="DejaVuSans-3d" d="M 678 2906 
L 4684 2906 
L 4684 2381 
L 678 2381 
L 678 2906 
z
M 678 1631 
L 4684 1631 
L 4684 1100 
L 678 1100 
L 678 1631 
z
" transform="scale(0.015625)"/>
       <path id="DejaVuSans-34" d="M 2419 4116 
L 825 1625 
L 2419 1625 
L 2419 4116 
z
M 2253 4666 
L 3047 4666 
L 3047 1625 
L 3713 1625 
L 3713 1100 
L 3047 1100 
L 3047 0 
L 2419 0 
L 2419 1100 
L 313 1100 
L 313 1709 
L 2253 4666 
z
" transform="scale(0.015625)"/>
       <path id="DejaVuSans-2c" d="M 750 794 
L 1409 794 
L 1409 256 
L 897 -744 
L 494 -744 
L 750 256 
L 750 794 
z
" transform="scale(0.015625)"/>
       <path id="DejaVuSans-54" d="M -19 4666 
L 3928 4666 
L 3928 4134 
L 2272 4134 
L 2272 0 
L 1638 0 
L 1638 4134 
L -19 4134 
L -19 4666 
z
" transform="scale(0.015625)"/>
       <path id="DejaVuSans-37" d="M 525 4666 
L 3525 4666 
L 3525 4397 
L 1831 0 
L 1172 0 
L 2766 4134 
L 525 4134 
L 525 4666 
z
" transform="scale(0.015625)"/>
       <path id="DejaVuSans-32" d="M 1228 531 
L 3431 531 
L 3431 0 
L 469 0 
L 469 531 
Q 828 903 1448 1529 
Q 2069 2156 2228 2338 
Q 2531 2678 2651 2914 
Q 2772 3150 2772 3378 
Q 2772 3750 2511 3984 
Q 2250 4219 1831 4219 
Q 1534 4219 1204 4116 
Q 875 4013 500 3803 
L 500 4441 
Q 881 4594 1212 4672 
Q 1544 4750 1819 4750 
Q 2544 4750 2975 4387 
Q 3406 4025 3406 3419 
Q 3406 3131 3298 2873 
Q 3191 2616 2906 2266 
Q 2828 2175 2409 1742 
Q 1991 1309 1228 531 
z
" transform="scale(0.015625)"/>
      </defs>
      <use xlink:href="#DejaVuSans-3ba"/>
      <use xlink:href="#DejaVuSans-20" transform="translate(58.935547 0)"/>
      <use xlink:href="#DejaVuSans-3d" transform="translate(90.722656 0)"/>
      <use xlink:href="#DejaVuSans-20" transform="translate(174.511719 0)"/>
      <use xlink:href="#DejaVuSans-34" transform="translate(206.298828 0)"/>
      <use xlink:href="#DejaVuSans-2c" transform="translate(269.921875 0)"/>
      <use xlink:href="#DejaVuSans-20" transform="translate(301.708984 0)"/>
      <use xlink:href="#DejaVuSans-54" transform="translate(333.496094 0)"/>
      <use xlink:href="#DejaVuSans-20" transform="translate(394.580078 0)"/>
      <use xlink:href="#DejaVuSans-3d" transform="translate(426.367188 0)"/>
      <use xlink:href="#DejaVuSans-20" transform="translate(510.15625 0)"/>
      <use xlink:href="#DejaVuSans-37" transform="translate(541.943359 0)"/>
      <use xlink:href="#DejaVuSans-32" transform="translate(605.566406 0)"/>
     </g>
     <!-- (+2) α: 20 -->
     <g style="fill: #ffffff" transform="translate(199.4475 182.360627) scale(0.12 -0.12)">
      <defs>
       <path id="DejaVuSans-28" d="M 1984 4856 
Q 1566 4138 1362 3434 
Q 1159 2731 1159 2009 
Q 1159 1288 1364 580 
Q 1569 -128 1984 -844 
L 1484 -844 
Q 1016 -109 783 600 
Q 550 1309 550 2009 
Q 550 2706 781 3412 
Q 1013 4119 1484 4856 
L 1984 4856 
z
" transform="scale(0.015625)"/>
       <path id="DejaVuSans-2b" d="M 2944 4013 
L 2944 2272 
L 4684 2272 
L 4684 1741 
L 2944 1741 
L 2944 0 
L 2419 0 
L 2419 1741 
L 678 1741 
L 678 2272 
L 2419 2272 
L 2419 4013 
L 2944 4013 
z
" transform="scale(0.015625)"/>
       <path id="DejaVuSans-29" d="M 513 4856 
L 1013 4856 
Q 1481 4119 1714 3412 
Q 1947 2706 1947 2009 
Q 1947 1309 1714 600 
Q 1481 -109 1013 -844 
L 513 -844 
Q 928 -128 1133 580 
Q 1338 1288 1338 2009 
Q 1338 2731 1133 3434 
Q 928 4138 513 4856 
z
" transform="scale(0.015625)"/>
       <path id="DejaVuSans-3b1" d="M 2644 1628 
L 2506 2350 
Q 2366 3091 1809 3091 
Q 1391 3091 1200 2747 
Q 959 2316 959 1747 
Q 959 1059 1194 731 
Q 1431 397 1809 397 
Q 2228 397 2453 1063 
L 2644 1628 
z
M 2966 2584 
L 3275 3500 
L 3788 3500 
L 3147 1603 
L 3272 919 
Q 3300 766 3409 638 
Q 3538 488 3638 488 
L 3913 488 
L 3913 0 
L 3569 0 
Q 3275 0 3013 263 
Q 2884 394 2831 669 
Q 2688 322 2394 50 
Q 2256 -78 1809 -78 
Q 1075 -78 719 397 
Q 353 888 353 1747 
Q 353 2666 750 3097 
Q 1191 3578 1809 3578 
Q 2781 3578 2966 2584 
z
" transform="scale(0.015625)"/>
       <path id="DejaVuSans-3a" d="M 750 794 
L 1409 794 
L 1409 0 
L 750 0 
L 750 794 
z
M 750 3309 
L 1409 3309 
L 1409 2516 
L 750 2516 
L 750 3309 
z
" transform="scale(0.015625)"/>
       <path id="DejaVuSans-30" d="M 2034 4250 
Q 1547 4250 1301 3770 
Q 1056 3291 1056 2328 
Q 1056 1369 1301 889 
Q 1547 409 2034 409 
Q 2525 409 2770 889 
Q 3016 1369 3016 2328 
Q 3016 3291 2770 3770 
Q 2525 4250 2034 4250 
z
M 2034 4750 
Q 2819 4750 3233 4129 
Q 3647 3509 3647 2328 
Q 3647 1150 3233 529 
Q 2819 -91 2034 -91 
Q 1250 -91 836 529 
Q 422 1150 422 2328 
Q 422 3509 836 4129 
Q 1250 4750 2034 4750 
z
" transform="scale(0.015625)"/>
      </defs>
      <use xlink:href="#DejaVuSans-28"/>
      <use xlink:href="#DejaVuSans-2b" transform="translate(39.013672 0)"/>
      <use xlink:href="#DejaVuSans-32" transform="translate(122.802734 0)"/>
      <use xlink:href="#DejaVuSans-29" transform="translate(186.425781 0)"/>
      <use xlink:href="#DejaVuSans-20" transform="translate(225.439453 0)"/>
      <use xlink:href="#DejaVuSans-3b1" transform="translate(257.226562 0)"/>
      <use xlink:href="#DejaVuSans-3a" transform="translate(323.144531 0)"/>
      <use xlink:href="#DejaVuSans-20" transform="translate(356.835938 0)"/>
      <use xlink:href="#DejaVuSans-32" transform="translate(388.623047 0)"/>
      <use xlink:href="#DejaVuSans-30" transform="translate(452.246094 0)"/>
     </g>
     <!-- Σλ = 136684.0 m -->
     <g style="fill: #ffffff" transform="translate(177.835312 195.798002) scale(0.12 -0.12)">
      <defs>
       <path id="DejaVuSans-3a3" d="M 1353 531 
L 3634 531 
L 3634 0 
L 628 0 
L 628 531 
L 2125 2481 
L 628 4134 
L 628 4666 
L 3578 4666 
L 3578 4134 
L 1353 4134 
L 2850 2494 
L 1353 531 
z
" transform="scale(0.015625)"/>
       <path id="DejaVuSans-3bb" d="M 1981 4316 
L 3597 0 
L 2988 0 
L 2006 2588 
L 800 0 
L 191 0 
L 1725 3356 
L 1494 3975 
Q 1347 4369 1013 4369 
L 713 4369 
L 713 4863 
L 1078 4856 
Q 1784 4847 1981 4316 
z
" transform="scale(0.015625)"/>
       <path id="DejaVuSans-31" d="M 794 531 
L 1825 531 
L 1825 4091 
L 703 3866 
L 703 4441 
L 1819 4666 
L 2450 4666 
L 2450 531 
L 3481 531 
L 3481 0 
L 794 0 
L 794 531 
z
" transform="scale(0.015625)"/>
       <path id="DejaVuSans-33" d="M 2597 2516 
Q 3050 2419 3304 2112 
Q 3559 1806 3559 1356 
Q 3559 666 3084 287 
Q 2609 -91 1734 -91 
Q 1441 -91 1130 -33 
Q 819 25 488 141 
L 488 750 
Q 750 597 1062 519 
Q 1375 441 1716 441 
Q 2309 441 2620 675 
Q 2931 909 2931 1356 
Q 2931 1769 2642 2001 
Q 2353 2234 1838 2234 
L 1294 2234 
L 1294 2753 
L 1863 2753 
Q 2328 2753 2575 2939 
Q 2822 3125 2822 3475 
Q 2822 3834 2567 4026 
Q 2313 4219 1838 4219 
Q 1578 4219 1281 4162 
Q 984 4106 628 3988 
L 628 4550 
Q 988 4650 1302 4700 
Q 1616 4750 1894 4750 
Q 2613 4750 3031 4423 
Q 3450 4097 3450 3541 
Q 3450 3153 3228 2886 
Q 3006 2619 2597 2516 
z
" transform="scale(0.015625)"/>
       <path id="DejaVuSans-36" d="M 2113 2584 
Q 1688 2584 1439 2293 
Q 1191 2003 1191 1497 
Q 1191 994 1439 701 
Q 1688 409 2113 409 
Q 2538 409 2786 701 
Q 3034 994 3034 1497 
Q 3034 2003 2786 2293 
Q 2538 2584 2113 2584 
z
M 3366 4563 
L 3366 3988 
Q 3128 4100 2886 4159 
Q 2644 4219 2406 4219 
Q 1781 4219 1451 3797 
Q 1122 3375 1075 2522 
Q 1259 2794 1537 2939 
Q 1816 3084 2150 3084 
Q 2853 3084 3261 2657 
Q 3669 2231 3669 1497 
Q 3669 778 3244 343 
Q 2819 -91 2113 -91 
Q 1303 -91 875 529 
Q 447 1150 447 2328 
Q 447 3434 972 4092 
Q 1497 4750 2381 4750 
Q 2619 4750 2861 4703 
Q 3103 4656 3366 4563 
z
" transform="scale(0.015625)"/>
       <path id="DejaVuSans-38" d="M 2034 2216 
Q 1584 2216 1326 1975 
Q 1069 1734 1069 1313 
Q 1069 891 1326 650 
Q 1584 409 2034 409 
Q 2484 409 2743 651 
Q 3003 894 3003 1313 
Q 3003 1734 2745 1975 
Q 2488 2216 2034 2216 
z
M 1403 2484 
Q 997 2584 770 2862 
Q 544 3141 544 3541 
Q 544 4100 942 4425 
Q 1341 4750 2034 4750 
Q 2731 4750 3128 4425 
Q 3525 4100 3525 3541 
Q 3525 3141 3298 2862 
Q 3072 2584 2669 2484 
Q 3125 2378 3379 2068 
Q 3634 1759 3634 1313 
Q 3634 634 3220 271 
Q 2806 -91 2034 -91 
Q 1263 -91 848 271 
Q 434 634 434 1313 
Q 434 1759 690 2068 
Q 947 2378 1403 2484 
z
M 1172 3481 
Q 1172 3119 1398 2916 
Q 1625 2713 2034 2713 
Q 2441 2713 2670 2916 
Q 2900 3119 2900 3481 
Q 2900 3844 2670 4047 
Q 2441 4250 2034 4250 
Q 1625 4250 1398 4047 
Q 1172 3844 1172 3481 
z
" transform="scale(0.015625)"/>
       <path id="DejaVuSans-2e" d="M 684 794 
L 1344 794 
L 1344 0 
L 684 0 
L 684 794 
z
" transform="scale(0.015625)"/>
       <path id="DejaVuSans-6d" d="M 3328 2828 
Q 3544 3216 3844 3400 
Q 4144 3584 4550 3584 
Q 5097 3584 5394 3201 
Q 5691 2819 5691 2113 
L 5691 0 
L 5113 0 
L 5113 2094 
Q 5113 2597 4934 2840 
Q 4756 3084 4391 3084 
Q 3944 3084 3684 2787 
Q 3425 2491 3425 1978 
L 3425 0 
L 2847 0 
L 2847 2094 
Q 2847 2600 2669 2842 
Q 2491 3084 2119 3084 
Q 1678 3084 1418 2786 
Q 1159 2488 1159 1978 
L 1159 0 
L 581 0 
L 581 3500 
L 1159 3500 
L 1159 2956 
Q 1356 3278 1631 3431 
Q 1906 3584 2284 3584 
Q 2666 3584 2933 3390 
Q 3200 3197 3328 2828 
z
" transform="scale(0.015625)"/>
      </defs>
      <use xlink:href="#DejaVuSans-3a3"/>
      <use xlink:href="#DejaVuSans-3bb" transform="translate(63.183594 0)"/>
      <use xlink:href="#DejaVuSans-20" transform="translate(122.363281 0)"/>
      <use xlink:href="#DejaVuSans-3d" transform="translate(154.150391 0)"/>
      <use xlink:href="#DejaVuSans-20" transform="translate(237.939453 0)"/>
      <use xlink:href="#DejaVuSans-31" transform="translate(269.726562 0)"/>
      <use xlink:href="#DejaVuSans-33" transform="translate(333.349609 0)"/>
      <use xlink:href="#DejaVuSans-36" transform="translate(396.972656 0)"/>
      <use xlink:href="#DejaVuSans-36" transform="translate(460.595703 0)"/>
      <use xlink:href="#DejaVuSans-38" transform="translate(524.21875 0)"/>
      <use xlink:href="#DejaVuSans-34" transform="translate(587.841797 0)"/>
      <use xlink:href="#DejaVuSans-2e" transform="translate(651.464844 0)"/>
      <use xlink:href="#DejaVuSans-30" transform="translate(683.251953 0)"/>
      <use xlink:href="#DejaVuSans-20" transform="translate(746.875 0)"/>
      <use xlink:href="#DejaVuSans-6d" transform="translate(778.662109 0)"/>
     </g>
    </g>
   </g>
  </g>
 </g>
 <defs>
  <clipPath id="p748a9e7a61">
   <rect x="3.00024" y="138.306373" width="454.79952" height="68.987254"/>
  </clipPath>
 </defs>
</svg>
