<?xml version="1.0"?>
<!DOCTYPE svg PUBLIC "-//W3C//DTD SVG 1.1//EN" 
              "http://www.w3.org/Graphics/SVG/1.1/DTD/svg11.dtd">
<svg xmlns="http://www.w3.org/2000/svg" viewBox="0 0 1920 926">
  <defs>
    <filter x="-5%" y="-5%" id="bg_textbox" width="110%" height="110%">
      <feFlood flood-opacity="0.7" flood-color="#111" result="bg"/>
      <feMerge>
        <feMergeNode in="bg"/>
        <feMergeNode in="SourceGraphic"/>
      </feMerge>
    </filter>
    <circle stroke="none" stroke-width="2" id="wtg" r="12"/>
    <rect stroke="none" stroke-width="2" id="oss" width="21" height="21" fill="lawngreen"/>
  </defs>
  <g id="triton">
    <path stroke="silver" stroke-dasharray="15 7" stroke-width="2" id="border" d="M681 30 1890 728 1578 896 1270 890 90 884 30 485z" fill-rule="evenodd" fill="#111"/>
    <g stroke="crimson" stroke-width="4" id="edges_unspecified">
      <line x1="560" y1="747" x2="490" y2="705"/>
      <line x1="609" y1="621" x2="539" y2="579"/>
      <line x1="609" y1="621" x2="777" y2="412"/>
      <line x1="609" y1="621" x2="679" y2="663"/>
      <line x1="820" y1="748" x2="749" y2="705"/>
      <line x1="1507" y1="539" x2="1437" y2="497"/>
      <line x1="1199" y1="664" x2="1318" y2="581"/>
      <line x1="1199" y1="664" x2="1248" y2="539"/>
      <line x1="1199" y1="664" x2="1269" y2="707"/>
      <line x1="1199" y1="664" x2="1128" y2="622"/>
      <line x1="1367" y1="455" x2="1296" y2="413"/>
      <line x1="1340" y1="749" x2="1269" y2="707"/>
      <line x1="1459" y1="665" x2="1388" y2="623"/>
      <line x1="1388" y1="623" x2="1318" y2="581"/>
      <line x1="300" y1="747" x2="349" y2="621"/>
      <line x1="300" y1="747" x2="230" y2="704"/>
      <line x1="349" y1="621" x2="279" y2="578"/>
      <line x1="490" y1="705" x2="539" y2="579"/>
      <line x1="539" y1="579" x2="586" y2="454"/>
      <line x1="1128" y1="622" x2="1058" y2="580"/>
      <line x1="1080" y1="748" x2="1128" y2="622"/>
      <line x1="1248" y1="539" x2="1177" y2="496"/>
      <line x1="1248" y1="539" x2="1296" y2="413"/>
      <line x1="875" y1="160" x2="804" y2="118"/>
      <line x1="669" y1="75" x2="734" y2="75"/>
      <line x1="1486" y1="875" x2="1551" y2="875"/>
      <line x1="1599" y1="749" x2="1529" y2="707"/>
      <line x1="641" y1="873" x2="706" y2="873"/>
      <line x1="706" y1="873" x2="771" y2="873"/>
      <line x1="1735" y1="792" x2="1789" y2="708"/>
      <line x1="1675" y1="833" x2="1735" y2="792"/>
      <line x1="1789" y1="708" x2="1719" y2="666"/>
      <line x1="1529" y1="707" x2="1459" y2="665"/>
      <line x1="1648" y1="623" x2="1578" y2="581"/>
      <line x1="1578" y1="581" x2="1507" y2="539"/>
      <line x1="679" y1="663" x2="728" y2="537"/>
      <line x1="869" y1="622" x2="917" y2="496"/>
      <line x1="777" y1="412" x2="826" y2="286"/>
      <line x1="945" y1="202" x2="875" y2="160"/>
      <line x1="1015" y1="244" x2="945" y2="202"/>
      <line x1="826" y1="286" x2="875" y2="160"/>
      <line x1="312" y1="326" x2="371" y2="285"/>
      <line x1="447" y1="369" x2="371" y2="285"/>
      <line x1="431" y1="243" x2="491" y2="201"/>
      <line x1="121" y1="872" x2="186" y2="872"/>
      <line x1="105" y1="746" x2="159" y2="662"/>
      <line x1="490" y1="705" x2="419" y2="663"/>
      <line x1="896" y1="328" x2="826" y2="286"/>
      <line x1="586" y1="454" x2="636" y2="327"/>
      <line x1="491" y1="201" x2="550" y2="159"/>
      <line x1="566" y1="285" x2="491" y2="201"/>
      <line x1="1096" y1="874" x2="1080" y2="748"/>
      <line x1="820" y1="748" x2="869" y2="622"/>
      <line x1="1356" y1="875" x2="1421" y2="875"/>
      <line x1="1421" y1="875" x2="1486" y2="875"/>
      <line x1="836" y1="874" x2="820" y2="748"/>
      <line x1="685" y1="201" x2="610" y2="117"/>
      <line x1="610" y1="117" x2="669" y2="75"/>
      <line x1="550" y1="159" x2="610" y2="117"/>
      <line x1="1356" y1="875" x2="1340" y2="749"/>
      <line x1="966" y1="370" x2="896" y2="328"/>
      <line x1="1226" y1="371" x2="1156" y2="328"/>
      <line x1="1031" y1="874" x2="1096" y2="874"/>
      <line x1="1096" y1="874" x2="1161" y2="874"/>
      <line x1="1161" y1="874" x2="1226" y2="874"/>
      <line x1="966" y1="874" x2="1031" y2="874"/>
      <line x1="251" y1="872" x2="316" y2="872"/>
      <line x1="316" y1="872" x2="381" y2="873"/>
      <line x1="771" y1="873" x2="836" y2="874"/>
      <line x1="159" y1="662" x2="89" y2="620"/>
      <line x1="230" y1="704" x2="159" y2="662"/>
      <line x1="73" y1="494" x2="133" y2="452"/>
      <line x1="133" y1="452" x2="193" y2="410"/>
      <line x1="328" y1="453" x2="252" y2="368"/>
      <line x1="1177" y1="496" x2="1107" y2="454"/>
      <line x1="252" y1="368" x2="312" y2="326"/>
      <line x1="193" y1="410" x2="252" y2="368"/>
      <line x1="1719" y1="666" x2="1648" y2="623"/>
      <line x1="186" y1="872" x2="251" y2="872"/>
      <line x1="1296" y1="413" x2="1226" y2="371"/>
      <line x1="279" y1="578" x2="208" y2="536"/>
      <line x1="446" y1="873" x2="511" y2="873"/>
      <line x1="511" y1="873" x2="576" y2="873"/>
      <line x1="381" y1="873" x2="446" y2="873"/>
    </g>
    <g stroke="red" stroke-dasharray="18 15" stroke-width="4" id="edges_tentative">
      <line x1="609" y1="621" x2="447" y2="369"/>
      <line x1="609" y1="621" x2="749" y2="705"/>
      <line x1="609" y1="621" x2="576" y2="873"/>
      <line x1="609" y1="621" x2="349" y2="621"/>
      <line x1="609" y1="621" x2="566" y2="285"/>
      <line x1="1199" y1="664" x2="1437" y2="497"/>
    </g>
    <g id="WTGgrp">
      <g fill="#ff9896">
        <use href="#wtg" x="560" y="747"/>
        <use href="#wtg" x="539" y="579"/>
        <use href="#wtg" x="419" y="663"/>
        <use href="#wtg" x="586" y="454"/>
        <use href="#wtg" x="636" y="327"/>
        <use href="#wtg" x="490" y="705"/>
      </g>
      <g fill="#98df8a">
        <use href="#wtg" x="749" y="705"/>
        <use href="#wtg" x="641" y="873"/>
        <use href="#wtg" x="706" y="873"/>
        <use href="#wtg" x="917" y="496"/>
        <use href="#wtg" x="869" y="622"/>
        <use href="#wtg" x="820" y="748"/>
        <use href="#wtg" x="771" y="873"/>
        <use href="#wtg" x="836" y="874"/>
      </g>
      <g fill="#1f77b4">
        <use href="#wtg" x="1437" y="497"/>
        <use href="#wtg" x="1735" y="792"/>
        <use href="#wtg" x="1789" y="708"/>
        <use href="#wtg" x="1578" y="581"/>
        <use href="#wtg" x="1507" y="539"/>
        <use href="#wtg" x="1648" y="623"/>
        <use href="#wtg" x="1719" y="666"/>
        <use href="#wtg" x="1675" y="833"/>
      </g>
      <g fill="#ffbb78">
        <use href="#wtg" x="1367" y="455"/>
        <use href="#wtg" x="1248" y="539"/>
        <use href="#wtg" x="1156" y="328"/>
        <use href="#wtg" x="1107" y="454"/>
        <use href="#wtg" x="1177" y="496"/>
        <use href="#wtg" x="1296" y="413"/>
        <use href="#wtg" x="1226" y="371"/>
      </g>
      <g fill="#aec7e8">
        <use href="#wtg" x="1269" y="707"/>
        <use href="#wtg" x="1551" y="875"/>
        <use href="#wtg" x="1421" y="875"/>
        <use href="#wtg" x="1486" y="875"/>
        <use href="#wtg" x="1340" y="749"/>
        <use href="#wtg" x="1356" y="875"/>
      </g>
      <g fill="#2ca02c">
        <use href="#wtg" x="1388" y="623"/>
        <use href="#wtg" x="1599" y="749"/>
        <use href="#wtg" x="1459" y="665"/>
        <use href="#wtg" x="1318" y="581"/>
        <use href="#wtg" x="1529" y="707"/>
      </g>
      <g fill="#d62728">
        <use href="#wtg" x="300" y="747"/>
        <use href="#wtg" x="349" y="621"/>
        <use href="#wtg" x="105" y="746"/>
        <use href="#wtg" x="159" y="662"/>
        <use href="#wtg" x="89" y="620"/>
        <use href="#wtg" x="230" y="704"/>
        <use href="#wtg" x="279" y="578"/>
        <use href="#wtg" x="208" y="536"/>
      </g>
      <g fill="#ff7f0e">
        <use href="#wtg" x="1128" y="622"/>
        <use href="#wtg" x="1080" y="748"/>
        <use href="#wtg" x="1096" y="874"/>
        <use href="#wtg" x="1161" y="874"/>
        <use href="#wtg" x="966" y="874"/>
        <use href="#wtg" x="1226" y="874"/>
        <use href="#wtg" x="1058" y="580"/>
        <use href="#wtg" x="1031" y="874"/>
      </g>
      <g fill="#c5b0d5">
        <use href="#wtg" x="804" y="118"/>
        <use href="#wtg" x="777" y="412"/>
        <use href="#wtg" x="945" y="202"/>
        <use href="#wtg" x="875" y="160"/>
        <use href="#wtg" x="826" y="286"/>
        <use href="#wtg" x="966" y="370"/>
        <use href="#wtg" x="1015" y="244"/>
        <use href="#wtg" x="896" y="328"/>
      </g>
      <g fill="#c49c94">
        <use href="#wtg" x="734" y="75"/>
        <use href="#wtg" x="431" y="243"/>
        <use href="#wtg" x="491" y="201"/>
        <use href="#wtg" x="685" y="201"/>
        <use href="#wtg" x="610" y="117"/>
        <use href="#wtg" x="669" y="75"/>
        <use href="#wtg" x="550" y="159"/>
        <use href="#wtg" x="566" y="285"/>
      </g>
      <g fill="#9467bd">
        <use href="#wtg" x="679" y="663"/>
        <use href="#wtg" x="728" y="537"/>
      </g>
      <g fill="#8c564b">
        <use href="#wtg" x="371" y="285"/>
        <use href="#wtg" x="73" y="494"/>
        <use href="#wtg" x="133" y="452"/>
        <use href="#wtg" x="328" y="453"/>
        <use href="#wtg" x="447" y="369"/>
        <use href="#wtg" x="252" y="368"/>
        <use href="#wtg" x="312" y="326"/>
        <use href="#wtg" x="193" y="410"/>
      </g>
      <g fill="#e377c2">
        <use href="#wtg" x="121" y="872"/>
        <use href="#wtg" x="316" y="872"/>
        <use href="#wtg" x="186" y="872"/>
        <use href="#wtg" x="511" y="873"/>
        <use href="#wtg" x="381" y="873"/>
        <use href="#wtg" x="251" y="872"/>
        <use href="#wtg" x="446" y="873"/>
        <use href="#wtg" x="576" y="873"/>
      </g>
    </g>
    <g id="OSSgrp">
      <use href="#oss" x="1188.5" y="653.5"/>
      <use href="#oss" x="598.5" y="610.5"/>
    </g>
  </g>
  <text filter="url(#bg_textbox)" text-anchor="end" font-family="sans-serif" font-size="40" fill="white" x="1890" y="896">
    <tspan x="1890" dy="-0.0em">&#x3A3;&#x3BB; = 113076.0 m</tspan>
    <tspan x="1890" dy="-1.3em">(+1) &#x3B1;: 8, &#x3B2;: 5</tspan>
    <tspan x="1890" dy="-1.3em">&#x3BA; = 8, T = 90</tspan>
  </text>
</svg>
